<svg width="1280" height="320" viewBox="0 0 1280 320" xmlns="http://www.w3.org/2000/svg">
  <rect width="1280" height="320" fill="#07070A"/>
  <g fill="#5A5F7D" fill-opacity="0.16"><rect x="-10" y="266" width="54" height="74"/><rect x="53" y="240" width="39" height="100"/><rect x="104" y="261" width="37" height="79"/><rect x="157" y="269" width="45" height="71"/><rect x="209" y="236" width="37" height="104"/><rect x="254" y="270" width="49" height="70"/><rect x="313" y="268" width="38" height="72"/><rect x="367" y="227" width="38" height="113"/><rect x="418" y="222" width="38" height="118"/><rect x="469" y="230" width="52" height="110"/><rect x="533" y="270" width="65" height="70"/><rect x="614" y="261" width="58" height="79"/><rect x="678" y="249" width="43" height="91"/><rect x="736" y="246" width="37" height="94"/><rect x="785" y="250" width="59" height="90"/><rect x="851" y="239" width="34" height="101"/><rect x="900" y="266" width="58" height="74"/><rect x="971" y="256" width="64" height="84"/><rect x="1049" y="266" width="57" height="74"/><rect x="1120" y="265" width="57" height="75"/><rect x="1186" y="223" width="49" height="117"/><rect x="1248" y="263" width="50" height="77"/></g>
  <g><rect x="12" y="276" width="5" height="7" fill="#F0B03C" fill-opacity="0.9"/><rect x="28" y="276" width="5" height="7" fill="#F0B03C" fill-opacity="0.9"/><rect x="12" y="298" width="5" height="7" fill="#A8DDF0" fill-opacity="0.9"/><rect x="59" y="272" width="5" height="7" fill="#A8DDF0" fill-opacity="0.9"/><rect x="110" y="271" width="5" height="7" fill="#F0B03C" fill-opacity="0.9"/><rect x="110" y="293" width="5" height="7" fill="#A8DDF0" fill-opacity="0.9"/><rect x="215" y="246" width="5" height="7" fill="#F0B03C" fill-opacity="0.9"/><rect x="335" y="278" width="5" height="7" fill="#A8DDF0" fill-opacity="0.9"/><rect x="424" y="232" width="5" height="7" fill="#A8DDF0" fill-opacity="0.9"/><rect x="424" y="254" width="5" height="7" fill="#F0B03C" fill-opacity="0.9"/><rect x="475" y="262" width="5" height="7" fill="#A8DDF0" fill-opacity="0.9"/><rect x="491" y="262" width="5" height="7" fill="#A8DDF0" fill-opacity="0.9"/><rect x="475" y="284" width="5" height="7" fill="#F0B03C" fill-opacity="0.9"/><rect x="491" y="284" width="5" height="7" fill="#A8DDF0" fill-opacity="0.9"/><rect x="539" y="280" width="5" height="7" fill="#A8DDF0" fill-opacity="0.9"/><rect x="571" y="280" width="5" height="7" fill="#A8DDF0" fill-opacity="0.9"/><rect x="620" y="271" width="5" height="7" fill="#A8DDF0" fill-opacity="0.9"/><rect x="700" y="281" width="5" height="7" fill="#F0B03C" fill-opacity="0.9"/><rect x="791" y="282" width="5" height="7" fill="#F0B03C" fill-opacity="0.9"/><rect x="823" y="282" width="5" height="7" fill="#F0B03C" fill-opacity="0.9"/><rect x="857" y="249" width="5" height="7" fill="#A8DDF0" fill-opacity="0.9"/><rect x="857" y="293" width="5" height="7" fill="#F0B03C" fill-opacity="0.9"/><rect x="922" y="298" width="5" height="7" fill="#A8DDF0" fill-opacity="0.9"/><rect x="977" y="266" width="5" height="7" fill="#A8DDF0" fill-opacity="0.9"/><rect x="993" y="288" width="5" height="7" fill="#B01020" fill-opacity="0.9"/><rect x="1087" y="298" width="5" height="7" fill="#F0B03C" fill-opacity="0.9"/><rect x="1192" y="255" width="5" height="7" fill="#A8DDF0" fill-opacity="0.9"/></g>
  <text x="-16" y="168" font-family="IBM Plex Mono, SFMono-Regular, Menlo, Consolas, monospace" font-size="150" font-weight="700"
        fill="#E4E4E8" letter-spacing="-5">z3rob</text>
  <rect x="1044" y="234" width="7" height="10" fill="#A8DDF0" fill-opacity="0.9"/>
  <text x="1256" y="244" text-anchor="end" font-family="IBM Plex Mono, SFMono-Regular, Menlo, Consolas, monospace" font-size="15"
        fill="#7C7C88" letter-spacing="1.5">SANDBOX ESCAPES &#183; OKTA PAM AUTHZ</text>
  <text x="1256" y="270" text-anchor="end" font-family="IBM Plex Mono, SFMono-Regular, Menlo, Consolas, monospace" font-size="13"
        fill="#7C7C88" letter-spacing="1" fill-opacity="0.7">WEB AUTHZ &#183; IDOR/BOLA &#183; BFLA</text>
</svg>